<svg width="100" height="35" viewBox="0 0 100 35" fill="none" xmlns="http://www.w3.org/2000/svg">
<path d="M9.56201 16.8271C9.56201 15.3178 9.88854 13.9754 10.5416 12.7999C11.1947 11.6099 12.1017 10.6884 13.2627 10.0353C14.4382 9.36774 15.7661 9.03395 17.2464 9.03395C19.0604 9.03395 20.6133 9.51286 21.9049 10.4707C23.1965 11.4285 24.06 12.7346 24.4953 14.389H20.4028C20.0981 13.7505 19.6627 13.2643 19.0967 12.9305C18.5452 12.5968 17.9139 12.4299 17.2028 12.4299C16.0563 12.4299 15.1275 12.829 14.4164 13.6271C13.7053 14.4253 13.3498 15.492 13.3498 16.8271C13.3498 18.1623 13.7053 19.229 14.4164 20.0271C15.1275 20.8253 16.0563 21.2244 17.2028 21.2244C17.9139 21.2244 18.5452 21.0575 19.0967 20.7237C19.6627 20.39 20.0981 19.9038 20.4028 19.2652H24.4953C24.06 20.9197 23.1965 22.2258 21.9049 23.1836C20.6133 24.1269 19.0604 24.5986 17.2464 24.5986C15.7661 24.5986 14.4382 24.272 13.2627 23.619C12.1017 22.9514 11.1947 22.0299 10.5416 20.8544C9.88854 19.6788 9.56201 18.3364 9.56201 16.8271Z" fill="white"/>
<path d="M32.3042 24.6639C31.1142 24.6639 30.0402 24.4099 29.0824 23.902C28.1391 23.394 27.3917 22.6684 26.8402 21.7251C26.3033 20.7818 26.0348 19.6788 26.0348 18.4163C26.0348 17.1682 26.3105 16.0725 26.862 15.1292C27.4135 14.1714 28.1681 13.4385 29.126 12.9305C30.0838 12.4226 31.1577 12.1686 32.3477 12.1686C33.5377 12.1686 34.6117 12.4226 35.5695 12.9305C36.5273 13.4385 37.282 14.1714 37.8334 15.1292C38.3849 16.0725 38.6607 17.1682 38.6607 18.4163C38.6607 19.6643 38.3777 20.7673 37.8117 21.7251C37.2602 22.6684 36.4983 23.394 35.526 23.902C34.5681 24.4099 33.4942 24.6639 32.3042 24.6639ZM32.3042 21.4421C33.0153 21.4421 33.6176 21.1809 34.111 20.6584C34.6189 20.136 34.8729 19.3886 34.8729 18.4163C34.8729 17.4439 34.6262 16.6965 34.1328 16.1741C33.6538 15.6516 33.0588 15.3904 32.3477 15.3904C31.6221 15.3904 31.0198 15.6516 30.5409 16.1741C30.062 16.682 29.8226 17.4294 29.8226 18.4163C29.8226 19.3886 30.0548 20.136 30.5192 20.6584C30.9981 21.1809 31.5931 21.4421 32.3042 21.4421Z" fill="white"/>
<path d="M39.8953 18.3945C39.8953 17.1464 40.1275 16.0507 40.5919 15.1074C41.0709 14.1641 41.7167 13.4385 42.5294 12.9305C43.3421 12.4226 44.2491 12.1686 45.2504 12.1686C46.0486 12.1686 46.7743 12.3355 47.4273 12.6693C48.0949 13.0031 48.6173 13.453 48.9947 14.019V8.38089H52.7171V24.4897H48.9947V22.7482C48.6464 23.3287 48.1457 23.7931 47.4926 24.1414C46.8541 24.4897 46.1067 24.6639 45.2504 24.6639C44.2491 24.6639 43.3421 24.4099 42.5294 23.902C41.7167 23.3795 41.0709 22.6466 40.5919 21.7033C40.1275 20.7455 39.8953 19.6426 39.8953 18.3945ZM48.9947 18.4163C48.9947 17.4875 48.7334 16.7546 48.211 16.2176C47.7031 15.6807 47.079 15.4122 46.3389 15.4122C45.5987 15.4122 44.9675 15.6807 44.445 16.2176C43.9371 16.7401 43.6831 17.4657 43.6831 18.3945C43.6831 19.3233 43.9371 20.0634 44.445 20.6149C44.9675 21.1519 45.5987 21.4203 46.3389 21.4203C47.079 21.4203 47.7031 21.1519 48.211 20.6149C48.7334 20.0779 48.9947 19.3451 48.9947 18.4163Z" fill="white"/>
<path d="M61.5275 15.434H59.5247V24.4898H55.8023V15.434H54.4526V12.3429H55.8023V11.9946C55.8023 10.4998 56.2304 9.3678 57.0866 8.59864C57.9429 7.81496 59.1982 7.42313 60.8526 7.42313C61.1284 7.42313 61.3315 7.43038 61.4622 7.44489V10.6014C60.751 10.5578 60.2504 10.6594 59.9601 10.9061C59.6699 11.1528 59.5247 11.5955 59.5247 12.234V12.3429H61.5275V15.434Z" fill="#F92672"/>
<path d="M62.5365 18.3946C62.5365 17.1465 62.7687 16.0508 63.2331 15.1075C63.712 14.1642 64.3578 13.4385 65.1705 12.9306C65.9832 12.4227 66.8902 12.1687 67.8916 12.1687C68.7478 12.1687 69.4952 12.3429 70.1338 12.6912C70.7868 13.0395 71.2875 13.4966 71.6358 14.0626V12.3429H75.3582V24.4898H71.6358V22.7701C71.273 23.336 70.765 23.7932 70.112 24.1415C69.4734 24.4898 68.726 24.6639 67.8698 24.6639C66.883 24.6639 65.9832 24.41 65.1705 23.902C64.3578 23.3796 63.712 22.6467 63.2331 21.7034C62.7687 20.7456 62.5365 19.6426 62.5365 18.3946ZM71.6358 18.4163C71.6358 17.4875 71.3746 16.7546 70.8521 16.2177C70.3442 15.6807 69.7202 15.4122 68.98 15.4122C68.2399 15.4122 67.6086 15.6807 67.0861 16.2177C66.5782 16.7401 66.3242 17.4658 66.3242 18.3946C66.3242 19.3233 66.5782 20.0635 67.0861 20.615C67.6086 21.1519 68.2399 21.4204 68.98 21.4204C69.7202 21.4204 70.3442 21.1519 70.8521 20.615C71.3746 20.078 71.6358 19.3451 71.6358 18.4163Z" fill="#F92672"/>
<path d="M81.7737 14.0626C82.122 13.4966 82.6227 13.0395 83.2758 12.6912C83.9288 12.3429 84.6762 12.1687 85.5179 12.1687C86.5193 12.1687 87.4263 12.4227 88.239 12.9306C89.0517 13.4385 89.6903 14.1642 90.1547 15.1075C90.6336 16.0508 90.873 17.1465 90.873 18.3946C90.873 19.6426 90.6336 20.7456 90.1547 21.7034C89.6903 22.6467 89.0517 23.3796 88.239 23.902C87.4263 24.41 86.5193 24.6639 85.5179 24.6639C84.6617 24.6639 83.9143 24.497 83.2758 24.1633C82.6372 23.815 82.1365 23.3578 81.7737 22.7918V24.4898H78.0513V8.38095H81.7737V14.0626ZM87.0853 18.3946C87.0853 17.4658 86.8241 16.7401 86.3016 16.2177C85.7937 15.6807 85.1624 15.4122 84.4077 15.4122C83.6676 15.4122 83.0363 15.6807 82.5139 16.2177C82.0059 16.7546 81.752 17.4875 81.752 18.4163C81.752 19.3451 82.0059 20.078 82.5139 20.615C83.0363 21.1519 83.6676 21.4204 84.4077 21.4204C85.1479 21.4204 85.7792 21.1519 86.3016 20.615C86.8241 20.0635 87.0853 19.3233 87.0853 18.3946Z" fill="#F92672"/>
<path d="M1 1H99V33.0136H1V1Z" stroke="#F92672" stroke-width="2"/>
</svg>
