<svg width="150" height="46" viewBox="0 0 150 46" fill="none" xmlns="http://www.w3.org/2000/svg">
<path d="M13.6362 23.1458C13.6362 21.2549 14.0453 19.5731 14.8635 18.1003C15.6817 16.6094 16.818 15.4549 18.2726 14.6367C19.7453 13.8003 21.409 13.3821 23.2635 13.3821C25.5362 13.3821 27.4817 13.9821 29.0999 15.1821C30.718 16.3821 31.7999 18.0185 32.3453 20.0912H27.218C26.8362 19.2912 26.2908 18.6821 25.5817 18.264C24.8908 17.8458 24.0999 17.6367 23.209 17.6367C21.7726 17.6367 20.609 18.1367 19.718 19.1367C18.8271 20.1367 18.3817 21.4731 18.3817 23.1458C18.3817 24.8185 18.8271 26.1549 19.718 27.1549C20.609 28.1549 21.7726 28.6549 23.209 28.6549C24.0999 28.6549 24.8908 28.4458 25.5817 28.0276C26.2908 27.6094 26.8362 27.0003 27.218 26.2003H32.3453C31.7999 28.2731 30.718 29.9094 29.0999 31.1094C27.4817 32.2912 25.5362 32.8821 23.2635 32.8821C21.409 32.8821 19.7453 32.4731 18.2726 31.6549C16.818 30.8185 15.6817 29.664 14.8635 28.1912C14.0453 26.7185 13.6362 25.0367 13.6362 23.1458Z" fill="#CFCFC2"/>
<path d="M42.1286 32.964C40.6377 32.964 39.2922 32.6458 38.0922 32.0094C36.9104 31.3731 35.974 30.464 35.2831 29.2821C34.6104 28.1003 34.274 26.7185 34.274 25.1367C34.274 23.5731 34.6195 22.2003 35.3104 21.0185C36.0013 19.8185 36.9467 18.9003 38.1467 18.264C39.3467 17.6276 40.6922 17.3094 42.1831 17.3094C43.674 17.3094 45.0195 17.6276 46.2195 18.264C47.4195 18.9003 48.3649 19.8185 49.0558 21.0185C49.7467 22.2003 50.0922 23.5731 50.0922 25.1367C50.0922 26.7003 49.7377 28.0821 49.0286 29.2821C48.3377 30.464 47.3831 31.3731 46.1649 32.0094C44.9649 32.6458 43.6195 32.964 42.1286 32.964ZM42.1286 28.9276C43.0195 28.9276 43.774 28.6003 44.3922 27.9458C45.0286 27.2912 45.3467 26.3549 45.3467 25.1367C45.3467 23.9185 45.0377 22.9821 44.4195 22.3276C43.8195 21.6731 43.074 21.3458 42.1831 21.3458C41.274 21.3458 40.5195 21.6731 39.9195 22.3276C39.3195 22.964 39.0195 23.9003 39.0195 25.1367C39.0195 26.3549 39.3104 27.2912 39.8922 27.9458C40.4922 28.6003 41.2377 28.9276 42.1286 28.9276Z" fill="#CFCFC2"/>
<path d="M51.6391 25.1094C51.6391 23.5458 51.93 22.1731 52.5118 20.9912C53.1118 19.8094 53.9209 18.9003 54.9391 18.264C55.9573 17.6276 57.0936 17.3094 58.3482 17.3094C59.3482 17.3094 60.2573 17.5185 61.0754 17.9367C61.9118 18.3549 62.5663 18.9185 63.0391 19.6276V12.564H67.7027V32.7458H63.0391V30.564C62.6027 31.2912 61.9754 31.8731 61.1573 32.3094C60.3573 32.7458 59.4209 32.964 58.3482 32.964C57.0936 32.964 55.9573 32.6458 54.9391 32.0094C53.9209 31.3549 53.1118 30.4367 52.5118 29.2549C51.93 28.0549 51.6391 26.6731 51.6391 25.1094ZM63.0391 25.1367C63.0391 23.9731 62.7118 23.0549 62.0573 22.3821C61.4209 21.7094 60.6391 21.3731 59.7118 21.3731C58.7845 21.3731 57.9936 21.7094 57.3391 22.3821C56.7027 23.0367 56.3845 23.9458 56.3845 25.1094C56.3845 26.2731 56.7027 27.2003 57.3391 27.8912C57.9936 28.564 58.7845 28.9003 59.7118 28.9003C60.6391 28.9003 61.4209 28.564 62.0573 27.8912C62.7118 27.2185 63.0391 26.3003 63.0391 25.1367Z" fill="#CFCFC2"/>
<path d="M85.4221 24.8912C85.4221 25.3276 85.3948 25.7821 85.3403 26.2549H74.7857C74.8585 27.2003 75.1585 27.9276 75.6857 28.4367C76.2312 28.9276 76.8948 29.1731 77.6766 29.1731C78.8403 29.1731 79.6494 28.6821 80.1039 27.7003H85.0676C84.813 28.7003 84.3494 29.6003 83.6766 30.4003C83.0221 31.2003 82.1948 31.8276 81.1948 32.2821C80.1948 32.7367 79.0766 32.964 77.8403 32.964C76.3494 32.964 75.0221 32.6458 73.8585 32.0094C72.6948 31.3731 71.7857 30.464 71.1312 29.2821C70.4766 28.1003 70.1494 26.7185 70.1494 25.1367C70.1494 23.5549 70.4676 22.1731 71.1039 20.9912C71.7585 19.8094 72.6675 18.9003 73.8312 18.264C74.9948 17.6276 76.3312 17.3094 77.8403 17.3094C79.313 17.3094 80.6221 17.6185 81.7676 18.2367C82.913 18.8549 83.8039 19.7367 84.4403 20.8821C85.0948 22.0276 85.4221 23.364 85.4221 24.8912ZM80.6494 23.664C80.6494 22.864 80.3766 22.2276 79.8312 21.7549C79.2857 21.2821 78.6039 21.0458 77.7857 21.0458C77.0039 21.0458 76.3403 21.2731 75.7948 21.7276C75.2676 22.1821 74.9403 22.8276 74.813 23.664H80.6494Z" fill="#CFCFC2"/>
<path d="M97.0633 21.4001H94.5543V32.7456H89.8906V21.4001H88.1997V17.5274H89.8906V17.091C89.8906 15.2183 90.427 13.8001 91.4997 12.8365C92.5724 11.8547 94.1452 11.3638 96.2179 11.3638C96.5633 11.3638 96.8179 11.3729 96.9815 11.391V15.3456C96.0906 15.291 95.4633 15.4183 95.0997 15.7274C94.7361 16.0365 94.5543 16.591 94.5543 17.391V17.5274H97.0633V21.4001Z" fill="#F92672"/>
<path d="M98.3275 25.1092C98.3275 23.5456 98.6184 22.1729 99.2002 20.991C99.8002 19.8092 100.609 18.9001 101.627 18.2638C102.646 17.6274 103.782 17.3092 105.037 17.3092C106.109 17.3092 107.046 17.5274 107.846 17.9638C108.664 18.4001 109.291 18.9729 109.727 19.682V17.5274H114.391V32.7456H109.727V30.591C109.273 31.3001 108.637 31.8729 107.818 32.3092C107.018 32.7456 106.082 32.9638 105.009 32.9638C103.773 32.9638 102.646 32.6456 101.627 32.0092C100.609 31.3547 99.8002 30.4365 99.2002 29.2547C98.6184 28.0547 98.3275 26.6729 98.3275 25.1092ZM109.727 25.1365C109.727 23.9729 109.4 23.0547 108.746 22.382C108.109 21.7092 107.327 21.3729 106.4 21.3729C105.473 21.3729 104.682 21.7092 104.027 22.382C103.391 23.0365 103.073 23.9456 103.073 25.1092C103.073 26.2729 103.391 27.2001 104.027 27.891C104.682 28.5638 105.473 28.9001 106.4 28.9001C107.327 28.9001 108.109 28.5638 108.746 27.891C109.4 27.2183 109.727 26.3001 109.727 25.1365Z" fill="#F92672"/>
<path d="M122.429 19.682C122.865 18.9729 123.492 18.4001 124.311 17.9638C125.129 17.5274 126.065 17.3092 127.12 17.3092C128.374 17.3092 129.511 17.6274 130.529 18.2638C131.547 18.9001 132.347 19.8092 132.929 20.991C133.529 22.1729 133.829 23.5456 133.829 25.1092C133.829 26.6729 133.529 28.0547 132.929 29.2547C132.347 30.4365 131.547 31.3547 130.529 32.0092C129.511 32.6456 128.374 32.9638 127.12 32.9638C126.047 32.9638 125.111 32.7547 124.311 32.3365C123.511 31.9001 122.883 31.3274 122.429 30.6183V32.7456H117.765V12.5638H122.429V19.682ZM129.083 25.1092C129.083 23.9456 128.756 23.0365 128.101 22.382C127.465 21.7092 126.674 21.3729 125.729 21.3729C124.801 21.3729 124.011 21.7092 123.356 22.382C122.72 23.0547 122.401 23.9729 122.401 25.1365C122.401 26.3001 122.72 27.2183 123.356 27.891C124.011 28.5638 124.801 28.9001 125.729 28.9001C126.656 28.9001 127.447 28.5638 128.101 27.891C128.756 27.2001 129.083 26.2729 129.083 25.1092Z" fill="#F92672"/>
<mask id="path-3-inside-1_590_396" fill="white">
<rect width="150" height="45.4545" rx="1"/>
</mask>
<rect width="150" height="45.4545" rx="1" stroke="url(#paint0_linear_590_396)" stroke-width="6" mask="url(#path-3-inside-1_590_396)"/>
<defs>
<linearGradient id="paint0_linear_590_396" x1="3.63216e-08" y1="2.27273" x2="150" y2="43.1818" gradientUnits="userSpaceOnUse">
<stop stop-color="#CFCFC2"/>
<stop offset="0.475886" stop-color="#CFCFC2"/>
<stop offset="1" stop-color="#F92672"/>
</linearGradient>
</defs>
</svg>
