<svg width="125" height="23" viewBox="0 0 125 23" fill="none" xmlns="http://www.w3.org/2000/svg">
<path d="M0 13.9462C0 12.3203 0.345867 10.9 1.0376 9.68528C1.7491 8.47053 2.72741 7.53611 3.97253 6.88202C5.23741 6.22792 6.68017 5.90087 8.3008 5.90087C10.376 5.90087 12.1053 6.4148 13.4888 7.44267C14.892 8.47053 15.8111 9.91889 16.2459 11.7877H10.8503C10.3958 10.5917 9.51628 9.99364 8.21186 9.99364C7.28297 9.99364 6.54182 10.3394 5.98844 11.0308C5.43505 11.7036 5.15836 12.6754 5.15836 13.9462C5.15836 15.2171 5.43505 16.1982 5.98844 16.8897C6.54182 17.5625 7.28297 17.8988 8.21186 17.8988C9.51628 17.8988 10.3958 17.3008 10.8503 16.1048H16.2459C15.8111 17.9362 14.892 19.3752 13.4888 20.4218C12.0856 21.4683 10.3562 21.9916 8.3008 21.9916C6.68017 21.9916 5.23741 21.6646 3.97253 21.0105C2.72741 20.3564 1.7491 19.422 1.0376 18.2072C0.345867 16.9925 0 15.5721 0 13.9462Z" fill="#313131"/>
<path d="M26.4875 21.9916C24.8669 21.9916 23.4044 21.6646 22.1 21.0105C20.8153 20.3564 19.7975 19.422 19.0464 18.2072C18.3152 16.9925 17.9496 15.5721 17.9496 13.9462C17.9496 12.339 18.3251 10.9281 19.0761 9.71331C19.8271 8.47988 20.8548 7.53611 22.1592 6.88202C23.4637 6.22792 24.9262 5.90087 26.5468 5.90087C28.1674 5.90087 29.63 6.22792 30.9344 6.88202C32.2388 7.53611 33.2665 8.47988 34.0175 9.71331C34.7686 10.9281 35.1441 12.339 35.1441 13.9462C35.1441 15.5534 34.7587 16.9738 33.9879 18.2072C33.2369 19.422 32.1993 20.3564 30.8751 21.0105C29.5707 21.6646 28.1082 21.9916 26.4875 21.9916ZM26.4875 17.8428C27.456 17.8428 28.2761 17.5064 28.9481 16.8336C29.6399 16.1608 29.9857 15.1984 29.9857 13.9462C29.9857 12.6941 29.6497 11.7317 28.9778 11.0589C28.3256 10.3861 27.5152 10.0497 26.5468 10.0497C25.5586 10.0497 24.7384 10.3861 24.0862 11.0589C23.434 11.713 23.1079 12.6754 23.1079 13.9462C23.1079 15.1984 23.4241 16.1608 24.0566 16.8336C24.7088 17.5064 25.5191 17.8428 26.4875 17.8428Z" fill="#313131"/>
<path d="M36.8255 13.9182C36.8255 12.311 37.1418 10.9 37.7742 9.68528C38.4264 8.47053 39.3059 7.53611 40.4127 6.88202C41.5194 6.22792 42.7547 5.90087 44.1184 5.90087C45.2054 5.90087 46.1936 6.11579 47.083 6.54562C47.9921 6.97546 48.7036 7.5548 49.2175 8.28365V1.02319H54.2869V21.7674H49.2175V19.5247C48.7431 20.2723 48.0613 20.8703 47.1719 21.3188C46.3023 21.7674 45.2845 21.9916 44.1184 21.9916C42.7547 21.9916 41.5194 21.6646 40.4127 21.0105C39.3059 20.3377 38.4264 19.3939 37.7742 18.1792C37.1418 16.9457 36.8255 15.5254 36.8255 13.9182ZM49.2175 13.9462C49.2175 12.7502 48.8617 11.8064 48.1502 11.1149C47.4585 10.4235 46.6086 10.0777 45.6007 10.0777C44.5927 10.0777 43.733 10.4235 43.0215 11.1149C42.3298 11.7877 41.9839 12.7222 41.9839 13.9182C41.9839 15.1143 42.3298 16.0674 43.0215 16.7775C43.733 17.469 44.5927 17.8147 45.6007 17.8147C46.6086 17.8147 47.4585 17.469 48.1502 16.7775C48.8617 16.0861 49.2175 15.1423 49.2175 13.9462Z" fill="#313131"/>
<path d="M73.548 13.6939C73.548 14.1425 73.5184 14.6097 73.4591 15.0956H61.9862C62.0652 16.0674 62.3913 16.8149 62.9645 17.3382C63.5574 17.8428 64.2788 18.0951 65.1286 18.0951C66.3935 18.0951 67.273 17.5905 67.7671 16.5813H73.1626C72.8859 17.6092 72.382 18.5343 71.6507 19.3565C70.9392 20.1788 70.0399 20.8236 68.9529 21.2908C67.8659 21.758 66.6505 21.9916 65.3065 21.9916C63.6859 21.9916 62.2431 21.6646 60.9782 21.0105C59.7133 20.3564 58.7252 19.422 58.0137 18.2072C57.3022 16.9925 56.9464 15.5721 56.9464 13.9462C56.9464 12.3203 57.2923 10.9 57.984 9.68528C58.6955 8.47053 59.6837 7.53611 60.9486 6.88202C62.2135 6.22792 63.6661 5.90087 65.3065 5.90087C66.9074 5.90087 68.3304 6.21858 69.5755 6.85398C70.8206 7.48939 71.789 8.39578 72.4808 9.57315C73.1923 10.7505 73.548 12.1241 73.548 13.6939ZM68.36 12.4325C68.36 11.6102 68.0636 10.9561 67.4706 10.4702C66.8777 9.9843 66.1366 9.74135 65.2472 9.74135C64.3974 9.74135 63.676 9.97495 63.0831 10.4422C62.5099 10.9094 62.1542 11.5728 62.0158 12.4325H68.36Z" fill="#313131"/>
<path d="M85.0357 10.9012H82.3083V22.5628H77.2389V10.9012H75.4008V6.92058H77.2389V6.47206C77.2389 4.54715 77.8219 3.08946 78.988 2.09897C80.154 1.08979 81.8636 0.585205 84.1167 0.585205C84.4922 0.585205 84.7689 0.594549 84.9467 0.613237V4.67797C83.9783 4.62191 83.2965 4.75273 82.9012 5.07043C82.5059 5.38813 82.3083 5.95813 82.3083 6.78042V6.92058H85.0357V10.9012Z" fill="#FF5678"/>
<path d="M86.4098 14.7137C86.4098 13.1065 86.726 11.6955 87.3585 10.4807C88.0107 9.26598 88.8902 8.33156 89.9969 7.67747C91.1037 7.02337 92.3389 6.69632 93.7027 6.69632C94.8687 6.69632 95.8866 6.92058 96.7562 7.36911C97.6455 7.81763 98.3274 8.40632 98.8017 9.13516V6.92058H103.871V22.5628H98.8017V20.3482C98.3076 21.0771 97.6159 21.6658 96.7265 22.1143C95.8569 22.5628 94.8391 22.7871 93.673 22.7871C92.3291 22.7871 91.1037 22.46 89.9969 21.8059C88.8902 21.1331 88.0107 20.1894 87.3585 18.9746C86.726 17.7412 86.4098 16.3209 86.4098 14.7137ZM98.8017 14.7417C98.8017 13.5456 98.446 12.6019 97.7345 11.9104C97.0427 11.2189 96.1929 10.8732 95.1849 10.8732C94.177 10.8732 93.3173 11.2189 92.6058 11.9104C91.914 12.5832 91.5682 13.5176 91.5682 14.7137C91.5682 15.9097 91.914 16.8628 92.6058 17.573C93.3173 18.2645 94.177 18.6102 95.1849 18.6102C96.1929 18.6102 97.0427 18.2645 97.7345 17.573C98.446 16.8815 98.8017 15.9378 98.8017 14.7417Z" fill="#FF5678"/>
<path d="M112.608 9.13516C113.082 8.40632 113.764 7.81763 114.654 7.36911C115.543 6.92058 116.561 6.69632 117.707 6.69632C119.071 6.69632 120.306 7.02337 121.413 7.67747C122.52 8.33156 123.389 9.26598 124.022 10.4807C124.674 11.6955 125 13.1065 125 14.7137C125 16.3209 124.674 17.7412 124.022 18.9746C123.389 20.1894 122.52 21.1331 121.413 21.8059C120.306 22.46 119.071 22.7871 117.707 22.7871C116.541 22.7871 115.523 22.5721 114.654 22.1423C113.784 21.6938 113.102 21.1051 112.608 20.3763V22.5628H107.539V1.81864H112.608V9.13516ZM119.842 14.7137C119.842 13.5176 119.486 12.5832 118.774 11.9104C118.083 11.2189 117.223 10.8732 116.195 10.8732C115.187 10.8732 114.328 11.2189 113.616 11.9104C112.924 12.6019 112.578 13.5456 112.578 14.7417C112.578 15.9378 112.924 16.8815 113.616 17.573C114.328 18.2645 115.187 18.6102 116.195 18.6102C117.203 18.6102 118.063 18.2645 118.774 17.573C119.486 16.8628 119.842 15.9097 119.842 14.7137Z" fill="#FF5678"/>
</svg>
